<?xml version="1.0" encoding="UTF-8" standalone="no"?>
<!-- Created with Inkscape (http://www.inkscape.org/) -->

<svg
   xmlns:dc="http://purl.org/dc/elements/1.1/"
   xmlns:cc="http://creativecommons.org/ns#"
   xmlns:rdf="http://www.w3.org/1999/02/22-rdf-syntax-ns#"
   xmlns:svg="http://www.w3.org/2000/svg"
   xmlns="http://www.w3.org/2000/svg"
   xmlns:sodipodi="http://sodipodi.sourceforge.net/DTD/sodipodi-0.dtd"
   xmlns:inkscape="http://www.inkscape.org/namespaces/inkscape"
   width="20mm"
   height="20mm"
   viewBox="0 0 20 20"
   version="1.1"
   id="svg8"
   sodipodi:docname="alldesktops.svg"
   inkscape:version="0.92.2 2405546, 2018-03-11">
  <title
     id="title4564">integro</title>
  <defs
     id="defs2" />
  <sodipodi:namedview
     id="base"
     pagecolor="#ffffff"
     bordercolor="#666666"
     borderopacity="1.0"
     inkscape:pageopacity="0.0"
     inkscape:pageshadow="2"
     inkscape:zoom="0.7"
     inkscape:cx="186.86746"
     inkscape:cy="287.9655"
     inkscape:document-units="mm"
     inkscape:current-layer="layer1"
     showgrid="true"
     inkscape:pagecheckerboard="true"
     inkscape:window-width="1920"
     inkscape:window-height="1052"
     inkscape:window-x="0"
     inkscape:window-y="0"
     inkscape:window-maximized="1">
    <inkscape:grid
       type="xygrid"
       id="grid815"
       spacingx="0.52916666"
       spacingy="0.52916666"
       units="mm" />
  </sodipodi:namedview>
  <metadata
     id="metadata5">
    <rdf:RDF>
      <cc:Work
         rdf:about="">
        <dc:format>image/svg+xml</dc:format>
        <dc:type
           rdf:resource="http://purl.org/dc/dcmitype/StillImage" />
        <dc:title>integro</dc:title>
      </cc:Work>
    </rdf:RDF>
  </metadata>
  <g
     inkscape:label="Layer 1"
     inkscape:groupmode="layer"
     id="layer1"
     transform="translate(0,-277)">
    <g
       style="enable-background:new"
       transform="matrix(1.0213886,0,0,1.0213886,-1.4429283,276.31596)"
       id="hover-center">
      <path
         inkscape:connector-curvature="0"
         id="path2-67"
         d="m 30.499996,18.499973 c 4.418965,0 8.001308,-3.581731 8.001308,-8.000036 0,-4.4183059 -3.582343,-8.0000364 -8.001308,-8.0000364 -4.419096,0 -8.001449,3.5817305 -8.001449,8.0000364 0,4.418305 3.582353,8.000036 8.001449,8.000036"
         style="fill:none;fill-opacity:1;fill-rule:evenodd;stroke:none;stroke-width:1.14295816" />
      <path
         inkscape:connector-curvature="0"
         id="path4-5"
         d="m 30.5,17.999971 c 4.142502,0 7.500732,-3.357844 7.500732,-7.499577 0,-4.1418474 -3.35823,-7.4994625 -7.500732,-7.4994625 -4.14265,0 -7.500882,3.3576151 -7.500882,7.4994625 0,4.141733 3.358232,7.499577 7.500882,7.499577"
         style="fill:none;fill-opacity:1;fill-rule:evenodd;stroke:none;stroke-width:1.15386689" />
      <path
         inkscape:connector-curvature="0"
         id="path4-5-3"
         d="m 30.500005,14.033876 c 1.950373,0 3.531496,-1.580941 3.531496,-3.530951 0,-1.950066 -1.581123,-3.5308985 -3.531496,-3.5308985 -1.950443,0 -3.531566,1.5808325 -3.531566,3.5308985 0,1.95001 1.581123,3.530951 3.531566,3.530951"
         style="fill:#e6e6e6;fill-opacity:1;fill-rule:evenodd;stroke:none;stroke-width:0.54326373;enable-background:new" />
    </g>
    <g
       transform="matrix(1.0213886,0,0,1.0213886,18.984845,276.3119)"
       style="enable-background:new"
       id="pressed-center">
      <path
         inkscape:connector-curvature="0"
         id="path2-67-7"
         d="m 30.499996,18.499973 c 4.418965,0 8.001308,-3.581731 8.001308,-8.000036 0,-4.4183059 -3.582343,-8.0000364 -8.001308,-8.0000364 -4.419096,0 -8.001449,3.5817305 -8.001449,8.0000364 0,4.418305 3.582353,8.000036 8.001449,8.000036"
         style="fill:none;fill-opacity:1;fill-rule:evenodd;stroke:none;stroke-width:1.14295816" />
      <path
         inkscape:connector-curvature="0"
         id="path4-5-5"
         d="m 30.5,17.999971 c 4.142502,0 7.500732,-3.357844 7.500732,-7.499577 0,-4.1418474 -3.35823,-7.4994625 -7.500732,-7.4994625 -4.14265,0 -7.500882,3.3576151 -7.500882,7.4994625 0,4.141733 3.358232,7.499577 7.500882,7.499577"
         style="fill:none;fill-opacity:1;fill-rule:evenodd;stroke:none;stroke-width:1.15386689" />
      <path
         inkscape:connector-curvature="0"
         id="path4-5-3-3"
         d="m 30.5,13.503984 c 1.657677,0 3.001518,-1.343686 3.001518,-3.001055 0,-1.6574163 -1.343841,-3.0010106 -3.001518,-3.0010106 -1.657737,0 -3.001578,1.3435943 -3.001578,3.0010106 0,1.657369 1.343841,3.001055 3.001578,3.001055"
         style="fill:#e6e6e6;fill-opacity:1;fill-rule:evenodd;stroke:none;stroke-width:0.46173522;enable-background:new" />
    </g>
    <g
       id="active-center"
       style="enable-background:new"
       transform="matrix(1.0213886,0,0,1.0213886,-21.098186,276.32802)">
      <path
         inkscape:connector-curvature="0"
         id="path2-67-6"
         d="m 30.499996,18.499973 c 4.418965,0 8.001308,-3.581731 8.001308,-8.000036 0,-4.4183059 -3.582343,-8.0000364 -8.001308,-8.0000364 -4.419096,0 -8.001449,3.5817305 -8.001449,8.0000364 0,4.418305 3.582353,8.000036 8.001449,8.000036"
         style="fill:none;fill-opacity:1;fill-rule:evenodd;stroke:none;stroke-width:1.14295816" />
      <path
         inkscape:connector-curvature="0"
         id="path4-5-7"
         d="m 30.5,17.999971 c 4.142502,0 7.500732,-3.357844 7.500732,-7.499577 0,-4.1418474 -3.35823,-7.4994625 -7.500732,-7.4994625 -4.14265,0 -7.500882,3.3576151 -7.500882,7.4994625 0,4.141733 3.358232,7.499577 7.500882,7.499577"
         style="fill:none;fill-opacity:1;fill-rule:evenodd;stroke:none;stroke-width:1.15386689" />
      <path
         inkscape:connector-curvature="0"
         id="path4-5-3-5"
         d="m 30.500005,14.022068 c 1.943851,0 3.519686,-1.575653 3.519686,-3.519143 0,-1.9435449 -1.575835,-3.519091 -3.519686,-3.519091 -1.943921,0 -3.519756,1.5755461 -3.519756,3.519091 0,1.94349 1.575835,3.519143 3.519756,3.519143"
         style="fill:#e3e3e3;fill-opacity:1;fill-rule:evenodd;stroke:none;stroke-width:0.54144704;enable-background:new" />
    </g>
    <g
       transform="matrix(1.0213886,0,0,1.0213886,39.412615,276.31596)"
       style="enable-background:new"
       id="inactive-center">
      <path
         inkscape:connector-curvature="0"
         id="path2-67-7-5"
         d="m 30.499996,18.499973 c 4.418965,0 8.001308,-3.581731 8.001308,-8.000036 0,-4.4183059 -3.582343,-8.0000364 -8.001308,-8.0000364 -4.419096,0 -8.001449,3.5817305 -8.001449,8.0000364 0,4.418305 3.582353,8.000036 8.001449,8.000036"
         style="fill:none;fill-opacity:1;fill-rule:evenodd;stroke:none;stroke-width:1.14295816" />
      <path
         inkscape:connector-curvature="0"
         id="path4-5-5-6"
         d="m 30.5,17.999971 c 4.142502,0 7.500732,-3.357844 7.500732,-7.499577 0,-4.1418474 -3.35823,-7.4994625 -7.500732,-7.4994625 -4.14265,0 -7.500882,3.3576151 -7.500882,7.4994625 0,4.141733 3.358232,7.499577 7.500882,7.499577"
         style="fill:none;fill-opacity:1;fill-rule:evenodd;stroke:none;stroke-width:1.15386689" />
      <path
         inkscape:connector-curvature="0"
         id="path4-5-3-3-2"
         d="m 30.5,13.503984 c 1.657677,0 3.001518,-1.343686 3.001518,-3.001055 0,-1.6574163 -1.343841,-3.0010106 -3.001518,-3.0010106 -1.657737,0 -3.001578,1.3435943 -3.001578,3.0010106 0,1.657369 1.343841,3.001055 3.001578,3.001055"
         style="opacity:0.5;fill:#e6e6e6;fill-opacity:1;fill-rule:evenodd;stroke:none;stroke-width:0.46173522;enable-background:new" />
    </g>
    <g
       transform="matrix(1.0213886,0,0,1.0213886,59.840388,276.31596)"
       style="enable-background:new"
       id="deactivated-center">
      <path
         inkscape:connector-curvature="0"
         id="path2-67-7-1"
         d="m 30.499996,18.499973 c 4.418965,0 8.001308,-3.581731 8.001308,-8.000036 0,-4.4183059 -3.582343,-8.0000364 -8.001308,-8.0000364 -4.419096,0 -8.001449,3.5817305 -8.001449,8.0000364 0,4.418305 3.582353,8.000036 8.001449,8.000036"
         style="fill:none;fill-opacity:1;fill-rule:evenodd;stroke:none;stroke-width:1.14295816" />
      <path
         inkscape:connector-curvature="0"
         id="path4-5-5-2"
         d="m 30.5,17.999971 c 4.142502,0 7.500732,-3.357844 7.500732,-7.499577 0,-4.1418474 -3.35823,-7.4994625 -7.500732,-7.4994625 -4.14265,0 -7.500882,3.3576151 -7.500882,7.4994625 0,4.141733 3.358232,7.499577 7.500882,7.499577"
         style="fill:none;fill-opacity:1;fill-rule:evenodd;stroke:none;stroke-width:1.15386689" />
      <path
         inkscape:connector-curvature="0"
         id="path4-5-3-3-7"
         d="m 30.5,13.503984 c 1.657677,0 3.001518,-1.343686 3.001518,-3.001055 0,-1.6574163 -1.343841,-3.0010106 -3.001518,-3.0010106 -1.657737,0 -3.001578,1.3435943 -3.001578,3.0010106 0,1.657369 1.343841,3.001055 3.001578,3.001055"
         style="opacity:0.2;fill:#e6e6e6;fill-opacity:1;fill-rule:evenodd;stroke:none;stroke-width:0.46173522;enable-background:new" />
    </g>
  </g>
</svg>
